<svg width="512" height="512" clip-rule="evenodd" fill-rule="evenodd" image-rendering="optimizeQuality" shape-rendering="geometricPrecision" text-rendering="geometricPrecision" version="1.1" xmlns="http://www.w3.org/2000/svg"><path d="m-0.0015 0.0031h512v512h-512z" fill="#7d2b2b"/><path d="m198 30q1.8-0.33 3 1l38 65q1 1.5 0 3a81820 81820 0 0 1-57 33q-35-29-55 12a176 176 0 0 0-9 43q-43-48-30-111 3.6-8.8 9.5-16 21 4.1 41-1.5 32-11 60-28m114 0a373 373 0 0 0 62 28q21 5.9 42 1.5 11 13 13 30 3.5 56-34 97-0.98-27-13-52-16-23-40-10a5852 5852 0 0 1-9.5 7.5 2487 2487 0 0 1-58-33 1779 1779 0 0 1 38-69" fill="#f9f8f8"/><path d="m58 34a4.9 4.9 0 0 1 3 0.5q7.5 9.5 17 17-19 30-14 66 8.1 57 52 94 1.7 29 8.5 57-75-38-102-118-9.5-33-2-66 9.9-31 36-50m392-1q49 33 42 92-7.6 53-42 93-27 32-64 50l-1-2a283 283 0 0 0 9.5-55q54-48 52-120-2.3-21-14-40a96 96 0 0 0 17-18m-217 89q1.8-0.33 3 1l20 39a6133 6133 0 0 1 50 114q-19 1.2-38-0.5a3851 3851 0 0 1-34-76 834 834 0 0 0-30-60 573 573 0 0 1 27-17" fill="#f9f8f8"/><path d="m276 122a130 130 0 0 1 29 17l-20 39a2051 2051 0 0 0-18-38 144 144 0 0 1 9-18" fill="#f8f6f6"/><path d="m226 226q1.4 0.68 2.5 2a1063 1063 0 0 0 18 40 81 81 0 0 1-4 7.5q-18 0.75-37 0.5a3.3e5 3.3e5 0 0 1 21-50" fill="#f8f7f7"/><path d="m170 324q-2.4 2.4-6 2a31 31 0 0 0-1-11q-9.4-9.2-22-8-33 1.8-32 36 3.3 47 50 38a60 60 0 0 0 12-4.5q1.9 0.17 2.5 2-2 7.8-10 9.5-21 6.4-43 1-37-16-30-56 9.7-29 40-34 22-2.7 42 5a9.8 9.8 0 0 1 1 4 979 979 0 0 0-2 16" fill="#f5f3f3"/><path d="m252 300q29-0.25 58 0.5 21 5.7 14 26-5.7 11-18 16a2219 2219 0 0 0 24 38q3 3.3 7.5 3v6q-13 0.25-25-0.5a944 944 0 0 0-28-42 13 13 0 0 1-0.5-5q23 0.75 20-22-4-13-18-12a20 20 0 0 0-6 1 1332 1332 0 0 0 0 73l1.5 1.5q4.5 0.75 9 0.5v6h-41v-6a32 32 0 0 0 8-0.5q1.8-0.75 2.5-2.5 1-36 0-72-4.8-2.7-10-3z" fill="#f6f5f5"/><path d="m420 322h-5q0.43-2.9-1-5 0.39-4.6-3-7.5-10-0.75-21-0.5-0.25 37 0.5 73l1.5 1.5q4.5 0.75 9 0.5v6h-41v-6a41 41 0 0 0 9-0.5l1.5-1.5q0.75-36 0.5-73a242 242 0 0 0-22 0.5l-1.5 1.5-1 11q-2.6 1.6-5.5 0.5a250 250 0 0 1-2-22h83a131 131 0 0 0-2 21" fill="#f5f4f4"/><path d="m414 316q1.4 2.1 1 5h5q-2.6 1.4-6 1z" fill="#baa1a1"/><path d="m170 324v3q-3.4 0.44-6-1 2.6 1.4 6 1z" fill="#ae8f8f"/><path d="m202 328q50-3.1 38 46-6 13-20 16-44 4.5-38-40 4.4-18 22-23" fill="#f6f4f4"/><path d="m208 334q15 0.46 16 16a121 121 0 0 1 0 22q-1.9 17-18 10-5.8-4.9-6.5-12-3.8-16 2-31a38 38 0 0 1 5.5-5" fill="#7d2c2c"/><path d="m126 416q20-1.7 41-0.5a472 472 0 0 0-12 16q-1.1 1.6-3 2a693 693 0 0 1-26-18m218 0q20-1.7 40-0.5l-26 20a371 371 0 0 1-14-19" fill="#f7f6f6"/><path d="m98 418a890 890 0 0 1 50 37q-0.066 2.7-2 5l-14 18q-1.5 1-3 0a1305 1305 0 0 1-48-37 503 503 0 0 0 16-22m314 0q2.3 0.016 3.5 2a231 231 0 0 0 16 20l-50 38a583 583 0 0 0-18-23 37647 37647 0 0 1 49-38" fill="#f8f7f7"/></svg>
