<svg xmlns="http://www.w3.org/2000/svg" width="512" height="512" style="shape-rendering:geometricPrecision;text-rendering:geometricPrecision;image-rendering:optimizeQuality;fill-rule:evenodd;clip-rule:evenodd"><path fill="#7d2b2b" d="M-.5-.5h512v512H-.5z" style="opacity:1"/><path fill="#f9f8f8" d="M197.5 29.5q1.763-.329 3 1l37.5 65q1 1.5 0 3a81820 81820 0 0 1-57 33q-35.295-29.307-55 12a176.5 176.5 0 0 0-9 43q-42.885-48.042-30-111 3.64-8.797 9.5-16 20.577 4.098 41-1.5 31.866-10.686 60-28.5M311.5 29.5a373 373 0 0 0 62 28.5q20.655 5.892 41.5 1.5 10.58 13.166 13 30 3.543 55.88-34 97-.985-27.435-13-52-15.56-23.353-40.5-10.5a5852 5852 0 0 1-9.5 7.5 2487 2487 0 0 1-58-33 1779 1779 0 0 1 38.5-69" style="opacity:1"/><path fill="#f9f8f8" d="M58.5 34.5a4.93 4.93 0 0 1 3 .5q7.5 9.5 17 17Q59.806 82.114 65 117.5q8.09 57.204 52 94 1.73 29.391 8.5 57-74.852-38.164-101.5-118-9.53-32.784-2-66 9.94-31.173 36.5-50M450.5 33.5q48.62 33.003 41.5 92-7.604 52.695-42 93-26.757 31.526-63.5 50l-1-2a283 283 0 0 0 9.5-55q53.9-47.637 52-120-2.271-21.313-13.5-39.5a95.5 95.5 0 0 0 17-18.5M233.5 122.5q1.763-.329 3 1l20.5 39A6133 6133 0 0 1 307.5 276q-19.02 1.25-38-.5a3851 3851 0 0 1-33.5-76 834 834 0 0 0-29.5-60 573 573 0 0 1 27-17" style="opacity:1"/><path fill="#f8f6f6" d="M275.5 122.5a129.5 129.5 0 0 1 29 17l-19.5 39a2051 2051 0 0 0-18.5-38.5 144 144 0 0 1 9-17.5" style="opacity:1"/><path fill="#f8f7f7" d="M225.5 226.5q1.438.679 2.5 2a1063 1063 0 0 0 17.5 40 81 81 0 0 1-4 7.5q-18.493.75-37 .5a334368 334368 0 0 1 21-50" style="opacity:1"/><path fill="#f5f3f3" d="M170.5 324.5q-2.421 2.362-6 2a31.1 31.1 0 0 0-1-11q-9.353-9.156-22.5-8-33.324 1.833-32.5 35.5 3.253 47.162 50 38a60.3 60.3 0 0 0 11.5-4.5q1.92.17 2.5 2-2.019 7.78-10 9.5-21.331 6.405-43 1-36.903-15.537-30.5-55.5 9.672-29.144 40.5-33.5 21.659-2.725 42 5a9.8 9.8 0 0 1 1 4 979 979 0 0 0-2 15.5" style="opacity:1"/><path fill="#f6f5f5" d="M252.5 300.5q29.005-.25 58 .5 20.72 5.679 14.5 26.5-5.702 11.009-17.5 15.5a2219 2219 0 0 0 24.5 37.5q3.037 3.29 7.5 3v6q-12.51.25-25-.5a944 944 0 0 0-27.5-42.5 12.9 12.9 0 0 1-.5-5q22.873.75 20.5-22-3.964-13.016-18-12a20 20 0 0 0-6 1 1332 1332 0 0 0 0 73l1.5 1.5q4.473.747 9 .5v6h-41v-6a32.5 32.5 0 0 0 8-.5q1.75-.75 2.5-2.5 1-36 0-72-4.798-2.687-10.5-3z" style="opacity:1"/><path fill="#f5f4f4" d="M420.5 321.5h-5q.426-2.872-1-5 .389-4.597-3-7.5-10.488-.75-21-.5-.25 36.504.5 73l1.5 1.5q4.473.747 9 .5v6h-41v-6a41 41 0 0 0 9-.5l1.5-1.5q.75-36.496.5-73a242 242 0 0 0-22 .5l-1.5 1.5-1 11q-2.589 1.614-5.5.5a250 250 0 0 1-2-21.5h83a131.4 131.4 0 0 0-2 21" style="opacity:1"/><path fill="#baa1a1" d="M414.5 316.5q1.426 2.128 1 5h5q-2.648 1.442-6 1z" style="opacity:1"/><path fill="#ae8f8f" d="M170.5 324.5v3q-3.353.442-6-1 2.647 1.442 6 1z" style="opacity:1"/><path fill="#f6f4f4" d="M202.5 328.5q50.243-3.098 37.5 46-6.024 13.4-20.5 16.5-43.899 4.518-38.5-39.5 4.377-17.622 21.5-23" style="opacity:1"/><path fill="#7d2c2c" d="M207.5 334.5q15.212.457 16.5 16a121 121 0 0 1 0 22q-1.938 16.594-17.5 10.5-5.8-4.878-6.5-12.5-3.757-15.893 2-31a38 38 0 0 1 5.5-5" style="opacity:1"/><path fill="#f7f6f6" d="M126.5 415.5q20.24-1.741 41-.5a472 472 0 0 0-12.5 16.5q-1.108 1.611-3 2a693 693 0 0 1-25.5-18M344.5 415.5q19.74-1.74 40-.5L359 434.5a371 371 0 0 1-14.5-19" style="opacity:1"/><path fill="#f8f7f7" d="M97.5 417.5a890 890 0 0 1 50.5 37q-.066 2.668-2 5L132.5 477q-1.5 1-3 0a1305 1305 0 0 1-48-37 503 503 0 0 0 16-22.5M411.5 417.5q2.276.016 3.5 2a231 231 0 0 0 15.5 20.5L380 478.5a583 583 0 0 0-17.5-23 37647 37647 0 0 1 49-38" style="opacity:1"/></svg>